<svg width="1200" height="760" viewBox="0 0 1200 760" fill="none" xmlns="http://www.w3.org/2000/svg">
  <rect width="1200" height="760" rx="42" fill="#F8FAFC"/>
  <rect x="70" y="70" width="1060" height="620" rx="36" fill="#FFFFFF" stroke="#D7E0EA"/>
  <rect x="120" y="132" width="960" height="496" rx="22" fill="#EEF4F8"/>
  <path d="M180 238h840" stroke="#CBD7E3" stroke-width="12" stroke-linecap="round" stroke-dasharray="32 32"/>
  <path d="M180 520h840" stroke="#CBD7E3" stroke-width="12" stroke-linecap="round" stroke-dasharray="32 32"/>
  <rect x="185" y="296" width="210" height="130" rx="28" fill="#1E3A5F"/>
  <rect x="220" y="260" width="140" height="70" rx="24" fill="#2B6B7C"/>
  <circle cx="240" cy="430" r="28" fill="#182B45"/>
  <circle cx="340" cy="430" r="28" fill="#182B45"/>
  <rect x="457" y="296" width="210" height="130" rx="28" fill="#0F766E"/>
  <rect x="492" y="260" width="140" height="70" rx="24" fill="#4E9A96"/>
  <circle cx="512" cy="430" r="28" fill="#182B45"/>
  <circle cx="612" cy="430" r="28" fill="#182B45"/>
  <rect x="730" y="288" width="230" height="144" rx="30" fill="#F59E0B"/>
  <rect x="770" y="246" width="150" height="78" rx="26" fill="#FBC56F"/>
  <circle cx="792" cy="438" r="30" fill="#182B45"/>
  <circle cx="902" cy="438" r="30" fill="#182B45"/>
  <rect x="972" y="170" width="32" height="310" rx="16" fill="#1E3A5F"/>
  <rect x="760" y="186" width="244" height="28" rx="14" fill="#EF4444"/>
  <rect x="990" y="492" width="64" height="24" rx="12" fill="#0F766E"/>
  <circle cx="1040" cy="168" r="48" fill="#FFFFFF" stroke="#1E3A5F" stroke-width="12"/>
  <path d="M1022 168h36" stroke="#0F766E" stroke-width="10" stroke-linecap="round"/>
  <path d="M1040 150v36" stroke="#0F766E" stroke-width="10" stroke-linecap="round"/>
  <rect x="160" y="570" width="190" height="34" rx="17" fill="#D9E5EE"/>
  <rect x="388" y="570" width="190" height="34" rx="17" fill="#D9E5EE"/>
  <rect x="616" y="570" width="190" height="34" rx="17" fill="#D9E5EE"/>
  <text x="132" y="146" font-family="Inter, Arial" font-size="38" fill="#1E3A5F" font-weight="700">Akıllı Otopark Sistemi</text>
  <text x="132" y="188" font-family="Inter, Arial" font-size="22" fill="#64748B">Sensör verisi • Doluluk takibi • Bariyer kontrolü</text>
</svg>
